<svg xmlns="http://www.w3.org/2000/svg" width="72" height="72" viewBox="0 0 72 72" fill="none">
  <defs>
    <linearGradient id="selectedMarkerFill" x1="14" y1="10" x2="58" y2="62" gradientUnits="userSpaceOnUse">
      <stop stop-color="#FF8A45"/>
      <stop offset="1" stop-color="#E33B24"/>
    </linearGradient>
    <filter id="selectedShadow" x="0" y="0" width="72" height="72" filterUnits="userSpaceOnUse" color-interpolation-filters="sRGB">
      <feDropShadow dx="0" dy="4" stdDeviation="4" flood-color="#B12B18" flood-opacity="0.45"/>
    </filter>
  </defs>

  <g filter="url(#selectedShadow)">
    <path d="M36 7C22.193 7 11 18.193 11 32C11 50.4 30.5 65.2 34.3 67.8C35.288 68.482 36.712 68.482 37.7 67.8C41.5 65.2 61 50.4 61 32C61 18.193 49.807 7 36 7Z" fill="url(#selectedMarkerFill)"/>
    <circle cx="36" cy="32" r="16" fill="#FFFFFF" fill-opacity="0.27"/>
    <path d="M29.6 24.3V36.2C29.6 37.1941 28.7941 38 27.8 38C26.8059 38 26 37.1941 26 36.2V24.3C26 23.3059 26.8059 22.5 27.8 22.5C28.7941 22.5 29.6 23.3059 29.6 24.3ZM24.8 24.3V28.3C24.8 30.0673 26.2327 31.5 28 31.5C29.7673 31.5 31.2 30.0673 31.2 28.3V24.3" stroke="#FFFFFF" stroke-width="2.2" stroke-linecap="round" stroke-linejoin="round"/>
    <path d="M43 23.7V36.3" stroke="#FFFFFF" stroke-width="2.2" stroke-linecap="round"/>
    <path d="M38.2 23.7C38.2 26.8 40.4 28.6 43 28.6" stroke="#FFFFFF" stroke-width="2.2" stroke-linecap="round" stroke-linejoin="round"/>
  </g>
</svg>
